<svg xmlns="http://www.w3.org/2000/svg" viewBox="0 0 512 512"><defs><linearGradient id="bg" x1="0%" y1="0%" x2="100%" y2="100%"><stop offset="0%" style="stop-color:#0a0a1a"/><stop offset="100%" style="stop-color:#1a1a2e"/></linearGradient><linearGradient id="green" x1="0%" y1="0%" x2="0%" y2="100%"><stop offset="0%" style="stop-color:#00cc66"/><stop offset="100%" style="stop-color:#007733"/></linearGradient><linearGradient id="purple" x1="0%" y1="0%" x2="0%" y2="100%"><stop offset="0%" style="stop-color:#9b59b6"/><stop offset="100%" style="stop-color:#6c3483"/></linearGradient><linearGradient id="orange" x1="0%" y1="0%" x2="0%" y2="100%"><stop offset="0%" style="stop-color:#e87722"/><stop offset="100%" style="stop-color:#c0621a"/></linearGradient><linearGradient id="blue" x1="0%" y1="0%" x2="0%" y2="100%"><stop offset="0%" style="stop-color:#0099ff"/><stop offset="100%" style="stop-color:#0055cc"/></linearGradient><filter id="glow"><feGaussianBlur stdDeviation="3" result="coloredBlur"/><feMerge><feMergeNode in="coloredBlur"/><feMergeNode in="SourceGraphic"/></feMerge></filter></defs><rect width="512" height="512" rx="90" fill="url(#bg)"/><line x1="64" y1="360" x2="448" y2="360" stroke="#ffffff08" stroke-width="1"/><line x1="64" y1="300" x2="448" y2="300" stroke="#ffffff06" stroke-width="1"/><line x1="64" y1="240" x2="448" y2="240" stroke="#ffffff06" stroke-width="1"/><line x1="64" y1="180" x2="448" y2="180" stroke="#ffffff06" stroke-width="1"/><rect x="74" y="270" width="52" height="90" rx="6" fill="url(#purple)" opacity="0.9"/><rect x="154" y="220" width="52" height="140" rx="6" fill="url(#green)" opacity="0.9"/><rect x="234" y="170" width="52" height="190" rx="6" fill="url(#orange)" opacity="0.9"/><rect x="314" y="210" width="52" height="150" rx="6" fill="url(#blue)" opacity="0.9"/><rect x="394" y="240" width="52" height="120" rx="6" fill="url(#green)" opacity="0.9"/><polyline points="100,270 180,218 260,168 340,208 420,238" fill="none" stroke="#ffffff" stroke-width="3.5" stroke-linecap="round" stroke-linejoin="round" opacity="0.95" filter="url(#glow)"/><circle cx="100" cy="270" r="6" fill="#9b59b6" stroke="#fff" stroke-width="2.5"/><circle cx="180" cy="218" r="6" fill="#00cc66" stroke="#fff" stroke-width="2.5"/><circle cx="260" cy="168" r="9" fill="#ffffff" stroke="#e87722" stroke-width="3" filter="url(#glow)"/><circle cx="340" cy="208" r="6" fill="#0099ff" stroke="#fff" stroke-width="2.5"/><circle cx="420" cy="238" r="6" fill="#00cc66" stroke="#fff" stroke-width="2.5"/><line x1="260" y1="148" x2="260" y2="162" stroke="#e87722" stroke-width="2" stroke-dasharray="3,2"/><polygon points="260,140 254,152 266,152" fill="#e87722"/><line x1="64" y1="362" x2="448" y2="362" stroke="#ffffff20" stroke-width="1.5"/><circle cx="408" cy="88" r="22" fill="#00cc6620"/><circle cx="408" cy="88" r="14" fill="#00cc6640"/><circle cx="408" cy="88" r="7" fill="#00cc66" filter="url(#glow)"/><text x="256" y="418" text-anchor="middle" font-family="'Courier New', monospace" font-size="28" font-weight="900" letter-spacing="6" fill="#ffffff">SIGNALS</text><text x="256" y="452" text-anchor="middle" font-family="'Courier New', monospace" font-size="18" font-weight="700" letter-spacing="3"><tspan fill="#e87722">NBA</tspan><tspan fill="#555555"> x </tspan><tspan fill="#0099ff">NHL</tspan></text><text x="100" y="378" text-anchor="middle" font-family="monospace" font-size="11" fill="#ffffff30">CF%</text><text x="180" y="378" text-anchor="middle" font-family="monospace" font-size="11" fill="#ffffff30">xGF</text><text x="260" y="378" text-anchor="middle" font-family="monospace" font-size="11" fill="#ffffff50">NET</text><text x="340" y="378" text-anchor="middle" font-family="monospace" font-size="11" fill="#ffffff30">PP%</text><text x="420" y="378" text-anchor="middle" font-family="monospace" font-size="11" fill="#ffffff30">SV%</text></svg>
